# File created by Blade
# Date/Time:  Tue Jan 27 17:21:46 2015
#---------------------------------------------------------
:version 1.10
:name HOM
:units
  mass 1.0
  length 1.000000
  angle deg
:documentation
     Acclaim Skeleton File
:root
   axis xyz
   order TX TY TZ RX RY RZ
   position 0.000000 0.000000 0.000000
   orientation 0 0 0
:bonedata
   begin
      id 1
      name Spine_dum
      direction 0.000000 1.000000 0.000000
      length 7.539951
      axis 0.0 0.0 0.0 xyz
   end
   begin
      id 2
      name LeftUpLeg_dum
      direction 1.000000 0.000000 0.000000
      length 3.345476
      axis 0.0 0.0 0.0 xyz
   end
   begin
      id 3
      name RightUpLeg_dum
      direction -1.000000 0.000000 0.000000
      length 3.345476
      axis 0.0 0.0 0.0 xyz
   end
   begin
      id 4
      name Spine
      direction 0.000000 1.000000 0.000000
      length 0.000000
      axis 0.0 0.0 0.0 xyz
      dof rx ry rz
   end
   begin
      id 5
      name Spine_dum1
      direction 0.000000 1.000000 0.000000
      length 15.093809
      axis 0.0 0.0 0.0 xyz
   end
   begin
      id 6
      name Spine_dum2
      direction 0.000000 1.000000 0.000000
      length 9.738928
      axis 0.0 0.0 0.0 xyz
   end
   begin
      id 7
      name Spine_dum3
      direction 0.000000 1.000000 0.000000
      length 9.738928
      axis 0.0 0.0 0.0 xyz
   end
   begin
      id 8
      name Head
      direction 0.000000 1.000000 0.000000
      length 4.527550
      axis 0.0 0.0 0.0 xyz
      dof rx ry rz
   end
   begin
      id 9
      name LeftShoulder
      direction 1.000000 0.000000 0.000000
      length 7.084015
      axis 0.0 0.0 -90.0 xyz
      dof rx ry rz
   end
   begin
      id 10
      name LeftArm
      direction 1.000000 0.000000 0.000000
      length 10.259319
      axis 0.0 0.0 -90.0 xyz
      dof rx ry rz
   end
   begin
      id 11
      name LeftForeArm
      direction 1.000000 0.000000 0.000000
      length 9.896984
      axis 0.0 0.0 -90.0 xyz
      dof ry rz rx
   end
   begin
      id 12
      name LeftHand
      direction 0.000000 0.000000 0.000000
      length 0.000000
      axis 0.0 0.0 -90.0 xyz
      dof rx ry rz
   end
   begin
      id 13
      name LeftHand_dum1
      direction 0.000000 0.000000 0.000000
      length 0.000000
      axis 0.0 0.0 -90.0 xyz
   end
   begin
      id 14
      name LeftHand_dum2
      direction 1.000000 0.000000 0.000000
      length 3.937000
      axis 0.0 0.0 -90.0 xyz
   end
   begin
      id 15
      name LeftHandThumb1
      direction 0.000000 0.000000 1.000000
      length 3.937000
      axis 0.0 0.0 -90.0 xyz
      dof rx rz ry
   end
   begin
      id 16
      name RightShoulder
      direction -1.000000 0.000000 0.000000
      length 7.084015
      axis 0.0 0.0 90.0 xyz
      dof rx ry rz
   end
   begin
      id 17
      name RightArm
      direction -1.000000 0.000000 0.000000
      length 10.259319
      axis 0.0 0.0 90.0 xyz
      dof rx ry rz
   end
   begin
      id 18
      name RightForeArm
      direction -1.000000 0.000000 0.000000
      length 9.896984
      axis 0.0 0.0 90.0 xyz
      dof ry rz rx
   end
   begin
      id 19
      name RightHand
      direction 0.000000 0.000000 0.000000
      length 0.000000
      axis 0.0 0.0 90.0 xyz
      dof rx ry rz
   end
   begin
      id 20
      name RightHand_dum1
      direction 0.000000 0.000000 0.000000
      length 0.000000
      axis 0.0 0.0 90.0 xyz
   end
   begin
      id 21
      name RightHand_dum2
      direction -1.000000 0.000000 0.000000
      length 3.937000
      axis 0.0 0.0 90.0 xyz
   end
   begin
      id 22
      name RightHandThumb1
      direction 0.000000 0.000000 1.000000
      length 3.937000
      axis 0.0 0.0 90.0 xyz
      dof rx rz ry
   end
   begin
      id 23
      name LeftUpLeg
      direction 0.000000 -1.000000 0.000000
      length 19.114733
      axis 0.0 0.0 0.0 xyz
      dof rx ry rz
   end
   begin
      id 24
      name LeftLeg
      direction 0.000000 -1.000000 0.000000
      length 16.045604
      axis 0.0 0.0 0.0 xyz
      dof rx ry rz
   end
   begin
      id 25
      name LeftFoot
      direction 0.000000 -0.258819 0.965926
      length 5.543155
      axis 15.0 0.0 0.0 xyz
      dof rx ry rz
   end
   begin
      id 26
      name LeftToeBase
      direction 0.000000 0.000000 1.000000
      length 2.952750
      axis 0.0 0.0 0.0 xyz
      dof rx ry rz
   end
   begin
      id 27
      name RightUpLeg
      direction 0.000000 -1.000000 0.000000
      length 19.114733
      axis 0.0 0.0 0.0 xyz
      dof rx ry rz
   end
   begin
      id 28
      name RightLeg
      direction 0.000000 -1.000000 0.000000
      length 16.045604
      axis 0.0 0.0 0.0 xyz
      dof rx ry rz
   end
   begin
      id 29
      name RightFoot
      direction 0.000000 -0.258819 0.965926
      length 5.543155
      axis 15.0 0.0 0.0 xyz
      dof rx ry rz
   end
   begin
      id 30
      name RightToeBase
      direction 0.000000 0.000000 1.000000
      length 2.952750
      axis 0.0 0.0 0.0 xyz
      dof rx ry rz
   end
:hierarchy
   begin
      root Spine_dum LeftUpLeg_dum RightUpLeg_dum
      Spine_dum Spine
      LeftUpLeg_dum LeftUpLeg
      RightUpLeg_dum RightUpLeg
      Spine Spine_dum1 Spine_dum2 Spine_dum3
      Spine_dum1 Head
      Spine_dum2 LeftShoulder
      Spine_dum3 RightShoulder
      LeftShoulder LeftArm
      LeftArm LeftForeArm
      LeftForeArm LeftHand
      LeftHand LeftHand_dum1 LeftHand_dum2
      LeftHand_dum1 LeftHandThumb1
      RightShoulder RightArm
      RightArm RightForeArm
      RightForeArm RightHand
      RightHand RightHand_dum1 RightHand_dum2
      RightHand_dum1 RightHandThumb1
      LeftUpLeg LeftLeg
      LeftLeg LeftFoot
      LeftFoot LeftToeBase
      RightUpLeg RightLeg
      RightLeg RightFoot
      RightFoot RightToeBase
   end

# File created by Blade
# Date/Time:  Tue Jan 27 17:21:37 2015
# Frame Rate: 120.000 fps
#------------------------------------------------------
:FULLY-SPECIFIED
:DEGREES
1152
root -2.964737 36.390338 -1.243847 -0.390480 -7.821490 -1.327239
Spine 5.683044 4.414415 2.660701
Head 8.998896 1.604305 0.507239
LeftShoulder -3.898988 -11.646291 9.193159
LeftArm -2.675205 -24.128986 -45.435003
LeftForeArm 11.761982 -0.000000 78.624575
LeftHand -19.591174 -0.000000 42.946485
LeftHandThumb1 -26.253704 0.000000 33.147579
RightShoulder -6.584859 -19.343556 1.429116
RightArm 17.983716 -26.827216 53.904636
RightForeArm 175.737139 -0.000000 30.699094
RightHand 0.910298 -0.000000 -1.843704
RightHandThumb1 -24.326973 -0.000000 -32.862282
LeftUpLeg -47.060633 18.588076 5.287408
LeftLeg 84.531032 -0.000000 -0.000000
LeftFoot -6.680515 7.018226 -28.576684
LeftToeBase 13.332432 -0.000000 -0.000000
RightUpLeg -7.127204 -11.822781 9.313124
RightLeg 18.474124 -0.000000 -0.000000
RightFoot -17.545118 -7.121833 -3.028837
RightToeBase 5.788021 -0.000000 -0.000000
1153
root -2.967442 36.392084 -1.225403 -0.317880 -7.957747 -1.361096
Spine 5.583417 4.535497 2.698877
Head 9.069004 1.668211 0.477702
LeftShoulder -3.990130 -11.595553 9.174745
LeftArm -2.787441 -24.121776 -45.350800
LeftForeArm 11.687391 -0.000000 78.741118
LeftHand -19.504341 -0.000000 42.923562
LeftHandThumb1 -26.253704 0.000000 33.147579
RightShoulder -6.525486 -19.273860 1.424132
RightArm 18.045918 -26.783301 53.920963
RightForeArm 175.600404 -0.000000 30.453794
RightHand 0.991785 -0.000000 -1.981957
RightHandThumb1 -24.326973 -0.000000 -32.862282
LeftUpLeg -47.004320 18.681045 5.438650
LeftLeg 84.490082 -0.000000 -0.000000
LeftFoot -6.689995 7.022149 -28.538806
LeftToeBase 13.399876 -0.000000 -0.000000
RightUpLeg -7.138461 -11.649195 9.348545
RightLeg 18.435699 -0.000000 -0.000000
RightFoot -17.479856 -7.118817 -3.041819
RightToeBase 5.756976 -0.000000 -0.000000
1154
root -2.970193 36.395429 -1.202527 -0.280084 -7.997776 -1.371501
Spine 5.501700 4.560950 2.701457
Head 9.161474 1.722406 0.466599
LeftShoulder -4.053680 -11.557172 9.149857
LeftArm -2.949498 -24.080174 -45.212083
LeftForeArm 11.550275 -0.000000 78.865403
LeftHand -19.527113 -0.000000 42.824081
LeftHandThumb1 -26.253704 0.000000 33.147579
RightShoulder -6.488970 -19.230602 1.433584
RightArm 18.122452 -26.726638 53.956508
RightForeArm 175.480713 -0.000000 30.222099
RightHand 0.936854 -0.000000 -1.997547
RightHandThumb1 -24.326973 -0.000000 -32.862282
LeftUpLeg -46.907766 18.619221 5.591723
LeftLeg 84.404396 -0.000000 -0.000000
LeftFoot -6.609121 6.988110 -28.488742
LeftToeBase 13.304231 -0.000000 -0.000000
RightUpLeg -7.106990 -11.655350 9.350936
RightLeg 18.371825 -0.000000 -0.000000
RightFoot -17.435067 -7.076434 -3.110241
RightToeBase 5.692184 -0.000000 -0.000000
1155
root -2.974986 36.399380 -1.176897 -0.235342 -7.985777 -1.396504
Spine 5.401571 4.570601 2.720436
Head 9.242934 1.730878 0.434095
LeftShoulder -4.094592 -11.531465 9.156633
LeftArm -3.116164 -24.026567 -45.138735
LeftForeArm 11.478326 -0.000000 78.983440
LeftHand -19.589719 -0.000000 42.964050
LeftHandThumb1 -26.253704 0.000000 33.147579
RightShoulder -6.508571 -19.160595 1.441928
RightArm 18.181046 -26.717333 54.002052
RightForeArm 175.242155 -0.000000 30.030839
RightHand 0.964623 -0.000000 -1.881977
RightHandThumb1 -24.326973 -0.000000 -32.862282
LeftUpLeg -46.813756 18.475044 5.768164
LeftLeg 84.295634 -0.000000 -0.000000
LeftFoot -6.560769 6.895272 -28.197483
LeftToeBase 13.246497 -0.000000 -0.000000
RightUpLeg -7.062585 -11.741715 9.368207
RightLeg 18.267969 -0.000000 -0.000000
RightFoot -17.370479 -6.999221 -3.196174
RightToeBase 5.594659 -0.000000 -0.000000
